<svg width="22" height="22" viewBox="0 0 22 22" fill="none" xmlns="http://www.w3.org/2000/svg">
<path d="M13.0625 6.875V17.5071C13.0625 17.6202 13.0904 17.7317 13.1438 17.8315C13.1973 17.9313 13.2745 18.0163 13.3686 18.0791L14.3133 18.7089C14.4049 18.77 14.51 18.8082 14.6195 18.8202C14.729 18.8322 14.8398 18.8178 14.9425 18.7781C15.0453 18.7383 15.137 18.6745 15.2099 18.5919C15.2829 18.5093 15.3349 18.4104 15.3616 18.3036L16.5 13.75" stroke="#F5F5F5" stroke-width="1.5" stroke-linecap="round" stroke-linejoin="round"/>
<path d="M16.5 13.7498C17.4117 13.7498 18.286 13.3876 18.9307 12.7429C19.5753 12.0983 19.9375 11.2239 19.9375 10.3123C19.9375 9.40057 19.5753 8.52623 18.9307 7.88157C18.286 7.23692 17.4117 6.87475 16.5 6.87475H13.0625C13.0625 6.87475 8.38306 6.87475 3.87999 3.098C3.77984 3.01371 3.6577 2.95977 3.52794 2.94252C3.39818 2.92527 3.2662 2.94543 3.1475 3.00063C3.02881 3.05583 2.92835 3.14378 2.85793 3.25412C2.78751 3.36447 2.75007 3.49263 2.75 3.62353V17.001C2.75007 17.1319 2.78751 17.26 2.85793 17.3704C2.92835 17.4807 3.02881 17.5687 3.1475 17.6239C3.2662 17.6791 3.39818 17.6992 3.52794 17.682C3.6577 17.6647 3.77984 17.6108 3.87999 17.5265C8.38306 13.7498 13.0625 13.7498 13.0625 13.7498H16.5Z" stroke="#F5F5F5" stroke-width="1.5" stroke-linecap="round" stroke-linejoin="round"/>
</svg>
