<svg width="30" height="30" viewBox="0 0 30 30" fill="none" xmlns="http://www.w3.org/2000/svg">
<path d="M23.4375 6.5625H5.625C5.10723 6.5625 4.6875 6.98223 4.6875 7.5V15C4.6875 15.5178 5.10723 15.9375 5.625 15.9375H23.4375C23.9553 15.9375 24.375 15.5178 24.375 15V7.5C24.375 6.98223 23.9553 6.5625 23.4375 6.5625Z" stroke="#000E33" stroke-width="1.8" stroke-linecap="round" stroke-linejoin="round"/>
<path d="M24.375 11.25H27.1875C27.4361 11.25 27.6746 11.3488 27.8504 11.5246C28.0262 11.7004 28.125 11.9389 28.125 12.1875V18.0428C28.125 18.2466 28.0586 18.4448 27.936 18.6074C27.8133 18.77 27.6409 18.8883 27.4451 18.9443L15.6799 22.3057C15.4841 22.3617 15.3117 22.48 15.189 22.6426C15.0664 22.8052 15 23.0034 15 23.2072V27.1875" stroke="#000E33" stroke-width="1.8" stroke-linecap="round" stroke-linejoin="round"/>
<path d="M4.6875 11.25H1.875" stroke="#000E33" stroke-width="1.8" stroke-linecap="round" stroke-linejoin="round"/>
</svg>
