<svg width="163" height="49" viewBox="0 0 163 49" fill="none" xmlns="http://www.w3.org/2000/svg">
<rect width="49" height="49" fill="#191919"/>
<path d="M24.6584 31.3123L21.4561 28.1099C19.191 25.8448 15.3637 27.446 15.3637 30.6484V34.8271H33.9532V22.0176L24.6584 31.3123Z" fill="white"/>
<path d="M24.6584 17.2135L27.8608 20.4159C30.1259 22.681 33.9532 21.0798 33.9532 17.8775V13.6987H15.3637V26.5083L24.6584 17.2135Z" fill="white"/>
<path d="M64.6 20H65.896V15.568H68.296C70.264 15.568 71.72 14.176 71.72 12.16C71.72 10.128 70.328 8.8 68.296 8.8H64.6V20ZM65.896 14.416V9.952H68.184C69.528 9.952 70.392 10.88 70.392 12.16C70.392 13.456 69.528 14.416 68.184 14.416H65.896ZM77.4954 20.208C79.9914 20.208 81.8474 18.336 81.8474 15.84C81.8474 13.344 80.0234 11.472 77.5114 11.472C75.0314 11.472 73.1594 13.328 73.1594 15.84C73.1594 18.368 74.9994 20.208 77.4954 20.208ZM77.4954 19.056C75.7194 19.056 74.4554 17.712 74.4554 15.84C74.4554 14.016 75.7034 12.624 77.4954 12.624C79.2874 12.624 80.5514 14 80.5514 15.84C80.5514 17.696 79.2874 19.056 77.4954 19.056ZM84.0806 20H85.3446V15.552C85.3446 13.968 85.9686 12.736 87.4886 12.736H88.2406V11.472H87.6966C86.4806 11.472 85.6646 12.368 85.4246 13.072H85.3286V11.68H84.0806V20ZM93.611 20H94.795V18.896H93.595C92.715 18.896 92.347 18.512 92.347 17.616V12.752H94.907V11.68H92.347V9.264H91.163V11.68H89.515V12.752H91.083V17.632C91.083 19.312 92.091 20 93.611 20ZM100.645 20.208C102.453 20.208 103.221 19.024 103.429 18.688H103.525V18.768C103.541 19.488 104.053 20 104.741 20H105.557V18.88H105.173C104.917 18.88 104.757 18.752 104.757 18.496V11.68H103.477V13.024H103.381C103.141 12.592 102.277 11.472 100.549 11.472C98.1813 11.472 96.5813 13.296 96.5813 15.856C96.5813 18.4 98.2613 20.208 100.645 20.208ZM100.709 19.072C99.1093 19.072 97.8773 17.808 97.8773 15.872C97.8773 13.968 99.0613 12.624 100.693 12.624C102.245 12.624 103.525 13.808 103.525 15.872C103.525 17.616 102.453 19.072 100.709 19.072ZM107.556 20H112.18V18.912H110.5V8H107.556V9.088H109.236V18.912H107.556V20ZM72.104 42H73.464L69.336 30.8H67.496L63.32 42H64.68L65.656 39.344H71.128L72.104 42ZM66.088 38.16L68.344 31.984H68.44L70.696 38.16H66.088ZM75.2213 42H76.4853V37.552C76.4853 35.968 77.1093 34.736 78.6293 34.736H79.3813V33.472H78.8373C77.6213 33.472 76.8053 34.368 76.5653 35.072H76.4693V33.68H75.2213V42ZM84.7751 42.208C86.5831 42.208 88.1991 41.12 88.6471 39.264L87.3991 38.976C87.1751 40.224 86.1191 41.056 84.8231 41.056C83.0791 41.056 81.8151 39.712 81.8151 37.84C81.8151 36.032 83.0151 34.624 84.7911 34.624C86.0871 34.624 87.1431 35.456 87.3671 36.704L88.6151 36.416C88.1671 34.56 86.5671 33.472 84.7591 33.472C82.3111 33.472 80.5031 35.376 80.5031 37.84C80.5031 40.304 82.2631 42.208 84.7751 42.208ZM90.8931 42H92.1571V36.944C92.1571 35.6 93.2451 34.656 94.5251 34.656C95.6931 34.656 96.7011 35.52 96.7011 36.848V42H97.9651V36.768C97.9651 34.928 96.7651 33.472 94.8291 33.472C93.5331 33.472 92.6051 34.144 92.2531 34.896H92.1571V30H90.8931V42ZM102.402 32.176C102.946 32.176 103.33 31.776 103.33 31.248C103.33 30.736 102.946 30.336 102.402 30.336C101.874 30.336 101.49 30.736 101.49 31.248C101.49 31.776 101.874 32.176 102.402 32.176ZM101.778 42H103.042V33.68H100.21V34.752H101.778V42ZM109.502 42H110.686V40.896H109.486C108.606 40.896 108.238 40.512 108.238 39.616V34.752H110.798V33.68H108.238V31.264H107.054V33.68H105.406V34.752H106.974V39.632C106.974 41.312 107.982 42 109.502 42ZM116.584 42.208C118.504 42.208 119.88 41.104 120.344 39.552L119.112 39.264C118.84 40.416 117.768 41.088 116.6 41.088C114.872 41.088 113.784 40.048 113.768 38.192H120.456V37.728C120.456 35.232 119.016 33.472 116.504 33.472C114.296 33.472 112.472 35.216 112.472 37.872C112.472 40.432 114.056 42.208 116.584 42.208ZM113.8 37.168C113.896 35.6 115.144 34.608 116.504 34.608C117.88 34.608 119.08 35.44 119.16 37.168H113.8ZM126.322 42.208C128.13 42.208 129.746 41.12 130.194 39.264L128.946 38.976C128.722 40.224 127.666 41.056 126.37 41.056C124.626 41.056 123.362 39.712 123.362 37.84C123.362 36.032 124.562 34.624 126.338 34.624C127.634 34.624 128.69 35.456 128.914 36.704L130.162 36.416C129.714 34.56 128.114 33.472 126.306 33.472C123.858 33.472 122.05 35.376 122.05 37.84C122.05 40.304 123.81 42.208 126.322 42.208ZM135.736 42H136.92V40.896H135.72C134.84 40.896 134.472 40.512 134.472 39.616V34.752H137.032V33.68H134.472V31.264H133.288V33.68H131.64V34.752H133.208V39.632C133.208 41.312 134.216 42 135.736 42ZM142.29 42.208C143.586 42.208 144.482 41.536 144.834 40.784H144.93V42H146.194V33.68H144.93V38.672C144.93 40.048 143.906 41.056 142.594 41.056C141.426 41.056 140.45 40.192 140.45 38.864V33.68H139.186V38.912C139.186 40.752 140.354 42.208 142.29 42.208ZM148.909 42H150.173V37.552C150.173 35.968 150.797 34.736 152.317 34.736H153.069V33.472H152.525C151.309 33.472 150.493 34.368 150.253 35.072H150.157V33.68H148.909V42ZM158.303 42.208C160.223 42.208 161.599 41.104 162.063 39.552L160.831 39.264C160.559 40.416 159.487 41.088 158.319 41.088C156.591 41.088 155.503 40.048 155.487 38.192H162.175V37.728C162.175 35.232 160.735 33.472 158.223 33.472C156.015 33.472 154.191 35.216 154.191 37.872C154.191 40.432 155.775 42.208 158.303 42.208ZM155.519 37.168C155.615 35.6 156.863 34.608 158.223 34.608C159.599 34.608 160.799 35.44 160.879 37.168H155.519Z" fill="#191919"/>
<path d="M64.6 20H64.4V20.2H64.6V20ZM65.896 20V20.2H66.096V20H65.896ZM65.896 15.568V15.368H65.696V15.568H65.896ZM64.6 8.8V8.6H64.4V8.8H64.6ZM65.896 14.416H65.696V14.616H65.896V14.416ZM65.896 9.952V9.752H65.696V9.952H65.896ZM64.6 20.2H65.896V19.8H64.6V20.2ZM66.096 20V15.568H65.696V20H66.096ZM65.896 15.768H68.296V15.368H65.896V15.768ZM68.296 15.768C70.3713 15.768 71.92 14.2896 71.92 12.16H71.52C71.52 14.0624 70.1567 15.368 68.296 15.368V15.768ZM71.92 12.16C71.92 11.0968 71.5548 10.2028 70.9095 9.57469C70.2648 8.94712 69.3561 8.6 68.296 8.6V9C69.2679 9 70.0712 9.31688 70.6305 9.86131C71.1892 10.4052 71.52 11.1912 71.52 12.16H71.92ZM68.296 8.6H64.6V9H68.296V8.6ZM64.4 8.8V20H64.8V8.8H64.4ZM66.096 14.416V9.952H65.696V14.416H66.096ZM65.896 10.152H68.184V9.752H65.896V10.152ZM68.184 10.152C68.8083 10.152 69.3068 10.3665 69.6491 10.716C69.9921 11.066 70.192 11.5656 70.192 12.16H70.592C70.592 11.4744 70.3599 10.87 69.9349 10.436C69.5092 10.0015 68.9037 9.752 68.184 9.752V10.152ZM70.192 12.16C70.192 12.7633 69.9914 13.2757 69.6474 13.6359C69.3044 13.995 68.8062 14.216 68.184 14.216V14.616C68.9058 14.616 69.5116 14.357 69.9366 13.9121C70.3606 13.4683 70.592 12.8527 70.592 12.16H70.192ZM68.184 14.216H65.896V14.616H68.184V14.216ZM77.4954 20.408C80.1028 20.408 82.0474 18.4455 82.0474 15.84H81.6474C81.6474 18.2265 79.8799 20.008 77.4954 20.008V20.408ZM82.0474 15.84C82.0474 13.236 80.1363 11.272 77.5114 11.272V11.672C79.9105 11.672 81.6474 13.452 81.6474 15.84H82.0474ZM77.5114 11.272C74.9209 11.272 72.9594 13.2175 72.9594 15.84H73.3594C73.3594 13.4385 75.1418 11.672 77.5114 11.672V11.272ZM72.9594 15.84C72.9594 18.4775 74.8879 20.408 77.4954 20.408V20.008C75.1108 20.008 73.3594 18.2585 73.3594 15.84H72.9594ZM77.4954 18.856C75.8406 18.856 74.6554 17.6126 74.6554 15.84H74.2554C74.2554 17.8114 75.5982 19.256 77.4954 19.256V18.856ZM74.6554 15.84C74.6554 14.1127 75.8271 12.824 77.4954 12.824V12.424C75.5796 12.424 74.2554 13.9193 74.2554 15.84H74.6554ZM77.4954 12.824C79.1656 12.824 80.3514 14.0988 80.3514 15.84H80.7514C80.7514 13.9012 79.4092 12.424 77.4954 12.424V12.824ZM80.3514 15.84C80.3514 17.5965 79.1662 18.856 77.4954 18.856V19.256C79.4085 19.256 80.7514 17.7955 80.7514 15.84H80.3514ZM84.0806 20H83.8806V20.2H84.0806V20ZM85.3446 20V20.2H85.5446V20H85.3446ZM88.2406 12.736V12.936H88.4406V12.736H88.2406ZM88.2406 11.472H88.4406V11.272H88.2406V11.472ZM85.4246 13.072V13.272H85.5677L85.6139 13.1365L85.4246 13.072ZM85.3286 13.072H85.1286V13.272H85.3286V13.072ZM85.3286 11.68H85.5286V11.48H85.3286V11.68ZM84.0806 11.68V11.48H83.8806V11.68H84.0806ZM84.0806 20.2H85.3446V19.8H84.0806V20.2ZM85.5446 20V15.552H85.1446V20H85.5446ZM85.5446 15.552C85.5446 14.7815 85.6972 14.1229 86.0117 13.6629C86.3188 13.2138 86.7917 12.936 87.4886 12.936V12.536C86.6656 12.536 86.0665 12.8742 85.6815 13.4371C85.3041 13.9891 85.1446 14.7385 85.1446 15.552H85.5446ZM87.4886 12.936H88.2406V12.536H87.4886V12.936ZM88.4406 12.736V11.472H88.0406V12.736H88.4406ZM88.2406 11.272H87.6966V11.672H88.2406V11.272ZM87.6966 11.272C86.3766 11.272 85.4965 12.2414 85.2353 13.0075L85.6139 13.1365C85.8328 12.4946 86.5846 11.672 87.6966 11.672V11.272ZM85.4246 12.872H85.3286V13.272H85.4246V12.872ZM85.5286 13.072V11.68H85.1286V13.072H85.5286ZM85.3286 11.48H84.0806V11.88H85.3286V11.48ZM83.8806 11.68V20H84.2806V11.68H83.8806ZM94.795 20V20.2H94.995V20H94.795ZM94.795 18.896H94.995V18.696H94.795V18.896ZM92.347 12.752V12.552H92.147V12.752H92.347ZM94.907 12.752V12.952H95.107V12.752H94.907ZM94.907 11.68H95.107V11.48H94.907V11.68ZM92.347 11.68H92.147V11.88H92.347V11.68ZM92.347 9.264H92.547V9.064H92.347V9.264ZM91.163 9.264V9.064H90.963V9.264H91.163ZM91.163 11.68V11.88H91.363V11.68H91.163ZM89.515 11.68V11.48H89.315V11.68H89.515ZM89.515 12.752H89.315V12.952H89.515V12.752ZM91.083 12.752H91.283V12.552H91.083V12.752ZM93.611 20.2H94.795V19.8H93.611V20.2ZM94.995 20V18.896H94.595V20H94.995ZM94.795 18.696H93.595V19.096H94.795V18.696ZM93.595 18.696C93.1789 18.696 92.932 18.6046 92.7845 18.4527C92.6357 18.2994 92.547 18.0428 92.547 17.616H92.147C92.147 18.0852 92.2423 18.4686 92.4975 18.7313C92.754 18.9954 93.1311 19.096 93.595 19.096V18.696ZM92.547 17.616V12.752H92.147V17.616H92.547ZM92.347 12.952H94.907V12.552H92.347V12.952ZM95.107 12.752V11.68H94.707V12.752H95.107ZM94.907 11.48H92.347V11.88H94.907V11.48ZM92.547 11.68V9.264H92.147V11.68H92.547ZM92.347 9.064H91.163V9.464H92.347V9.064ZM90.963 9.264V11.68H91.363V9.264H90.963ZM91.163 11.48H89.515V11.88H91.163V11.48ZM89.315 11.68V12.752H89.715V11.68H89.315ZM89.515 12.952H91.083V12.552H89.515V12.952ZM90.883 12.752V17.632H91.283V12.752H90.883ZM90.883 17.632C90.883 18.5132 91.1489 19.1675 91.6462 19.5973C92.1382 20.0225 92.8248 20.2 93.611 20.2V19.8C92.8772 19.8 92.2998 19.6335 91.9078 19.2947C91.5211 18.9605 91.283 18.4308 91.283 17.632H90.883ZM103.429 18.688V18.488H103.318L103.259 18.5827L103.429 18.688ZM103.525 18.688H103.725V18.488H103.525V18.688ZM103.525 18.768H103.325L103.325 18.7724L103.525 18.768ZM105.557 20V20.2H105.757V20H105.557ZM105.557 18.88H105.757V18.68H105.557V18.88ZM104.757 11.68H104.957V11.48H104.757V11.68ZM103.477 11.68V11.48H103.277V11.68H103.477ZM103.477 13.024V13.224H103.677V13.024H103.477ZM103.381 13.024L103.206 13.1211L103.264 13.224H103.381V13.024ZM100.645 20.408C102.56 20.408 103.381 19.1466 103.599 18.7933L103.259 18.5827C103.062 18.9014 102.346 20.008 100.645 20.008V20.408ZM103.429 18.888H103.525V18.488H103.429V18.888ZM103.325 18.688V18.768H103.725V18.688H103.325ZM103.325 18.7724C103.344 19.5952 103.939 20.2 104.741 20.2V19.8C104.168 19.8 103.739 19.3808 103.725 18.7636L103.325 18.7724ZM104.741 20.2H105.557V19.8H104.741V20.2ZM105.757 20V18.88H105.357V20H105.757ZM105.557 18.68H105.173V19.08H105.557V18.68ZM105.173 18.68C105.076 18.68 105.026 18.6556 105.002 18.6345C104.982 18.6168 104.957 18.5807 104.957 18.496H104.557C104.557 18.6673 104.612 18.8232 104.736 18.9335C104.857 19.0404 105.014 19.08 105.173 19.08V18.68ZM104.957 18.496V11.68H104.557V18.496H104.957ZM104.757 11.48H103.477V11.88H104.757V11.48ZM103.277 11.68V13.024H103.677V11.68H103.277ZM103.477 12.824H103.381V13.224H103.477V12.824ZM103.556 12.9269C103.296 12.4588 102.377 11.272 100.549 11.272V11.672C102.178 11.672 102.986 12.7252 103.206 13.1211L103.556 12.9269ZM100.549 11.272C99.3108 11.272 98.2638 11.7504 97.5284 12.5705C96.7945 13.3887 96.3812 14.5347 96.3812 15.856H96.7812C96.7812 14.6173 97.168 13.5713 97.8261 12.8375C98.4827 12.1056 99.4197 11.672 100.549 11.672V11.272ZM96.3812 15.856C96.3812 17.1723 96.8164 18.311 97.573 19.1224C98.3305 19.9348 99.4003 20.408 100.645 20.408V20.008C99.5062 20.008 98.544 19.5772 97.8655 18.8496C97.1861 18.121 96.7812 17.0837 96.7812 15.856H96.3812ZM100.709 18.872C99.237 18.872 98.0773 17.7156 98.0773 15.872H97.6772C97.6772 17.9004 98.9815 19.272 100.709 19.272V18.872ZM98.0773 15.872C98.0773 14.0516 99.1967 12.824 100.693 12.824V12.424C98.9258 12.424 97.6772 13.8844 97.6772 15.872H98.0773ZM100.693 12.824C101.417 12.824 102.071 13.0991 102.545 13.61C103.019 14.1212 103.325 14.8819 103.325 15.872H103.725C103.725 14.7981 103.392 13.9348 102.838 13.338C102.284 12.7409 101.522 12.424 100.693 12.424V12.824ZM103.325 15.872C103.325 17.5408 102.311 18.872 100.709 18.872V19.272C102.596 19.272 103.725 17.6912 103.725 15.872H103.325ZM107.556 20H107.356V20.2H107.556V20ZM112.18 20V20.2H112.38V20H112.18ZM112.18 18.912H112.38V18.712H112.18V18.912ZM110.5 18.912H110.3V19.112H110.5V18.912ZM110.5 8H110.7V7.8H110.5V8ZM107.556 8V7.8H107.356V8H107.556ZM107.556 9.088H107.356V9.288H107.556V9.088ZM109.236 9.088H109.436V8.888H109.236V9.088ZM109.236 18.912V19.112H109.436V18.912H109.236ZM107.556 18.912V18.712H107.356V18.912H107.556ZM107.556 20.2H112.18V19.8H107.556V20.2ZM112.38 20V18.912H111.98V20H112.38ZM112.18 18.712H110.5V19.112H112.18V18.712ZM110.7 18.912V8H110.3V18.912H110.7ZM110.5 7.8H107.556V8.2H110.5V7.8ZM107.356 8V9.088H107.756V8H107.356ZM107.556 9.288H109.236V8.888H107.556V9.288ZM109.036 9.088V18.912H109.436V9.088H109.036ZM109.236 18.712H107.556V19.112H109.236V18.712ZM107.356 18.912V20H107.756V18.912H107.356ZM72.104 42L71.9163 42.069L71.9644 42.2H72.104V42ZM73.464 42V42.2H73.7509L73.6517 41.9308L73.464 42ZM69.336 30.8L69.5237 30.7308L69.4754 30.6H69.336V30.8ZM67.496 30.8V30.6H67.3571L67.3086 30.7301L67.496 30.8ZM63.32 42L63.1326 41.9301L63.032 42.2H63.32V42ZM64.68 42V42.2H64.8196L64.8677 42.069L64.68 42ZM65.656 39.344V39.144H65.5164L65.4683 39.275L65.656 39.344ZM71.128 39.344L71.3157 39.275L71.2676 39.144H71.128V39.344ZM66.088 38.16L65.9001 38.0914L65.802 38.36H66.088V38.16ZM68.344 31.984V31.784H68.2041L68.1561 31.9154L68.344 31.984ZM68.44 31.984L68.6279 31.9154L68.5799 31.784H68.44V31.984ZM70.696 38.16V38.36H70.982L70.8839 38.0914L70.696 38.16ZM72.104 42.2H73.464V41.8H72.104V42.2ZM73.6517 41.9308L69.5237 30.7308L69.1483 30.8692L73.2763 42.0692L73.6517 41.9308ZM69.336 30.6H67.496V31H69.336V30.6ZM67.3086 30.7301L63.1326 41.9301L63.5074 42.0699L67.6834 30.8699L67.3086 30.7301ZM63.32 42.2H64.68V41.8H63.32V42.2ZM64.8677 42.069L65.8437 39.413L65.4683 39.275L64.4923 41.931L64.8677 42.069ZM65.656 39.544H71.128V39.144H65.656V39.544ZM70.9403 39.413L71.9163 42.069L72.2917 41.931L71.3157 39.275L70.9403 39.413ZM66.2759 38.2286L68.5319 32.0526L68.1561 31.9154L65.9001 38.0914L66.2759 38.2286ZM68.344 32.184H68.44V31.784H68.344V32.184ZM68.2521 32.0526L70.5081 38.2286L70.8839 38.0914L68.6279 31.9154L68.2521 32.0526ZM70.696 37.96H66.088V38.36H70.696V37.96ZM75.2213 42H75.0212V42.2H75.2213V42ZM76.4853 42V42.2H76.6853V42H76.4853ZM79.3813 34.736V34.936H79.5813V34.736H79.3813ZM79.3813 33.472H79.5813V33.272H79.3813V33.472ZM76.5653 35.072V35.272H76.7084L76.7546 35.1365L76.5653 35.072ZM76.4692 35.072H76.2692V35.272H76.4692V35.072ZM76.4692 33.68H76.6693V33.48H76.4692V33.68ZM75.2213 33.68V33.48H75.0212V33.68H75.2213ZM75.2213 42.2H76.4853V41.8H75.2213V42.2ZM76.6853 42V37.552H76.2853V42H76.6853ZM76.6853 37.552C76.6853 36.7815 76.8378 36.1229 77.1523 35.6629C77.4594 35.2138 77.9323 34.936 78.6292 34.936V34.536C77.8062 34.536 77.2071 34.8742 76.8222 35.4371C76.4447 35.9891 76.2853 36.7385 76.2853 37.552H76.6853ZM78.6292 34.936H79.3813V34.536H78.6292V34.936ZM79.5813 34.736V33.472H79.1812V34.736H79.5813ZM79.3813 33.272H78.8372V33.672H79.3813V33.272ZM78.8372 33.272C77.5172 33.272 76.6371 34.2414 76.3759 35.0075L76.7546 35.1365C76.9734 34.4946 77.7253 33.672 78.8372 33.672V33.272ZM76.5653 34.872H76.4692V35.272H76.5653V34.872ZM76.6693 35.072V33.68H76.2692V35.072H76.6693ZM76.4692 33.48H75.2213V33.88H76.4692V33.48ZM75.0212 33.68V42H75.4213V33.68H75.0212ZM88.6471 39.264L88.8415 39.3109L88.8889 39.1145L88.6921 39.0691L88.6471 39.264ZM87.3991 38.976L87.4441 38.7811L87.2394 38.7339L87.2023 38.9407L87.3991 38.976ZM87.3671 36.704L87.1703 36.7393L87.2074 36.9461L87.4121 36.8989L87.3671 36.704ZM88.6151 36.416L88.6601 36.6109L88.8569 36.5655L88.8095 36.3691L88.6151 36.416ZM84.7751 42.408C86.664 42.408 88.3693 41.2675 88.8415 39.3109L88.4527 39.2171C88.029 40.9725 86.5023 42.008 84.7751 42.008V42.408ZM88.6921 39.0691L87.4441 38.7811L87.3542 39.1709L88.6022 39.4589L88.6921 39.0691ZM87.2023 38.9407C86.9966 40.0863 86.0296 40.856 84.8231 40.856V41.256C86.2086 41.256 87.3536 40.3617 87.596 39.0113L87.2023 38.9407ZM84.8231 40.856C83.2017 40.856 82.0151 39.614 82.0151 37.84H81.6151C81.6151 39.81 82.9566 41.256 84.8231 41.256V40.856ZM82.0151 37.84C82.0151 36.1228 83.1443 34.824 84.7911 34.824V34.424C82.886 34.424 81.6151 35.9412 81.6151 37.84H82.0151ZM84.7911 34.824C85.9976 34.824 86.9646 35.5937 87.1703 36.7393L87.564 36.6687C87.3216 35.3183 86.1766 34.424 84.7911 34.424V34.824ZM87.4121 36.8989L88.6601 36.6109L88.5702 36.2211L87.3222 36.5091L87.4121 36.8989ZM88.8095 36.3691C88.3375 34.4134 86.6489 33.272 84.7591 33.272V33.672C86.4853 33.672 87.9968 34.7066 88.4207 36.4629L88.8095 36.3691ZM84.7591 33.272C82.1944 33.272 80.3031 35.272 80.3031 37.84H80.7031C80.7031 35.48 82.4279 33.672 84.7591 33.672V33.272ZM80.3031 37.84C80.3031 40.407 82.1454 42.408 84.7751 42.408V42.008C82.3809 42.008 80.7031 40.201 80.7031 37.84H80.3031ZM90.8931 42H90.6931V42.2H90.8931V42ZM92.1571 42V42.2H92.3571V42H92.1571ZM96.7011 42H96.5011V42.2H96.7011V42ZM97.9651 42V42.2H98.1651V42H97.9651ZM92.2531 34.896V35.096H92.3803L92.4343 34.9808L92.2531 34.896ZM92.1571 34.896H91.9571V35.096H92.1571V34.896ZM92.1571 30H92.3571V29.8H92.1571V30ZM90.8931 30V29.8H90.6931V30H90.8931ZM90.8931 42.2H92.1571V41.8H90.8931V42.2ZM92.3571 42V36.944H91.9571V42H92.3571ZM92.3571 36.944C92.3571 35.7229 93.3427 34.856 94.5251 34.856V34.456C93.1475 34.456 91.9571 35.4771 91.9571 36.944H92.3571ZM94.5251 34.856C95.5905 34.856 96.5011 35.6381 96.5011 36.848H96.9011C96.9011 35.4019 95.7958 34.456 94.5251 34.456V34.856ZM96.5011 36.848V42H96.9011V36.848H96.5011ZM96.7011 42.2H97.9651V41.8H96.7011V42.2ZM98.1651 42V36.768H97.7651V42H98.1651ZM98.1651 36.768C98.1651 35.805 97.8508 34.9308 97.2709 34.2952C96.689 33.6576 95.8504 33.272 94.8291 33.272V33.672C95.7438 33.672 96.4732 34.0144 96.9754 34.5648C97.4794 35.1172 97.7651 35.891 97.7651 36.768H98.1651ZM94.8291 33.272C93.4644 33.272 92.4605 33.9812 92.072 34.8112L92.4343 34.9808C92.7498 34.3068 93.6019 33.672 94.8291 33.672V33.272ZM92.2531 34.696H92.1571V35.096H92.2531V34.696ZM92.3571 34.896V30H91.9571V34.896H92.3571ZM92.1571 29.8H90.8931V30.2H92.1571V29.8ZM90.6931 30V42H91.0931V30H90.6931ZM101.778 42H101.578V42.2H101.778V42ZM103.042 42V42.2H103.242V42H103.042ZM103.042 33.68H103.242V33.48H103.042V33.68ZM100.21 33.68V33.48H100.01V33.68H100.21ZM100.21 34.752H100.01V34.952H100.21V34.752ZM101.778 34.752H101.978V34.552H101.778V34.752ZM102.402 32.376C103.059 32.376 103.53 31.8842 103.53 31.248H103.13C103.13 31.6678 102.833 31.976 102.402 31.976V32.376ZM103.53 31.248C103.53 30.6255 103.056 30.136 102.402 30.136V30.536C102.836 30.536 103.13 30.8465 103.13 31.248H103.53ZM102.402 30.136C101.761 30.136 101.29 30.6279 101.29 31.248H101.69C101.69 30.8441 101.987 30.536 102.402 30.536V30.136ZM101.29 31.248C101.29 31.8818 101.759 32.376 102.402 32.376V31.976C101.989 31.976 101.69 31.6702 101.69 31.248H101.29ZM101.778 42.2H103.042V41.8H101.778V42.2ZM103.242 42V33.68H102.842V42H103.242ZM103.042 33.48H100.21V33.88H103.042V33.48ZM100.01 33.68V34.752H100.41V33.68H100.01ZM100.21 34.952H101.778V34.552H100.21V34.952ZM101.578 34.752V42H101.978V34.752H101.578ZM110.686 42V42.2H110.886V42H110.686ZM110.686 40.896H110.886V40.696H110.686V40.896ZM108.238 34.752V34.552H108.038V34.752H108.238ZM110.798 34.752V34.952H110.998V34.752H110.798ZM110.798 33.68H110.998V33.48H110.798V33.68ZM108.238 33.68H108.038V33.88H108.238V33.68ZM108.238 31.264H108.438V31.064H108.238V31.264ZM107.054 31.264V31.064H106.854V31.264H107.054ZM107.054 33.68V33.88H107.254V33.68H107.054ZM105.406 33.68V33.48H105.206V33.68H105.406ZM105.406 34.752H105.206V34.952H105.406V34.752ZM106.974 34.752H107.174V34.552H106.974V34.752ZM109.502 42.2H110.686V41.8H109.502V42.2ZM110.886 42V40.896H110.486V42H110.886ZM110.686 40.696H109.486V41.096H110.686V40.696ZM109.486 40.696C109.069 40.696 108.823 40.6046 108.675 40.4527C108.526 40.2994 108.438 40.0428 108.438 39.616H108.038C108.038 40.0852 108.133 40.4686 108.388 40.7313C108.645 40.9954 109.022 41.096 109.486 41.096V40.696ZM108.438 39.616V34.752H108.038V39.616H108.438ZM108.238 34.952H110.798V34.552H108.238V34.952ZM110.998 34.752V33.68H110.598V34.752H110.998ZM110.798 33.48H108.238V33.88H110.798V33.48ZM108.438 33.68V31.264H108.038V33.68H108.438ZM108.238 31.064H107.054V31.464H108.238V31.064ZM106.854 31.264V33.68H107.254V31.264H106.854ZM107.054 33.48H105.406V33.88H107.054V33.48ZM105.206 33.68V34.752H105.606V33.68H105.206ZM105.406 34.952H106.974V34.552H105.406V34.952ZM106.774 34.752V39.632H107.174V34.752H106.774ZM106.774 39.632C106.774 40.5132 107.04 41.1675 107.537 41.5973C108.029 42.0225 108.715 42.2 109.502 42.2V41.8C108.768 41.8 108.19 41.6335 107.798 41.2947C107.412 40.9605 107.174 40.4308 107.174 39.632H106.774ZM120.344 39.552L120.535 39.6093L120.596 39.4056L120.389 39.3573L120.344 39.552ZM119.112 39.264L119.157 39.0693L118.963 39.0238L118.917 39.218L119.112 39.264ZM113.768 38.192V37.992H113.566L113.568 38.1937L113.768 38.192ZM120.456 38.192V38.392H120.656V38.192H120.456ZM113.8 37.168L113.6 37.1558L113.587 37.368H113.8V37.168ZM119.16 37.168V37.368H119.369L119.36 37.1587L119.16 37.168ZM116.584 42.408C118.59 42.408 120.045 41.2486 120.535 39.6093L120.152 39.4947C119.714 40.9594 118.418 42.008 116.584 42.008V42.408ZM120.389 39.3573L119.157 39.0693L119.066 39.4587L120.298 39.7467L120.389 39.3573ZM118.917 39.218C118.671 40.2603 117.697 40.888 116.6 40.888V41.288C117.839 41.288 119.009 40.5717 119.307 39.31L118.917 39.218ZM116.6 40.888C115.776 40.888 115.128 40.6409 114.684 40.1949C114.239 39.7486 113.976 39.0797 113.968 38.1903L113.568 38.1937C113.576 39.1603 113.865 39.9394 114.4 40.4771C114.936 41.0151 115.696 41.288 116.6 41.288V40.888ZM113.768 38.392H120.456V37.992H113.768V38.392ZM120.656 38.192V37.728H120.256V38.192H120.656ZM120.656 37.728C120.656 36.4427 120.285 35.3272 119.571 34.5305C118.854 33.7311 117.809 33.272 116.504 33.272V33.672C117.71 33.672 118.641 34.0929 119.273 34.7975C119.907 35.5048 120.256 36.5173 120.256 37.728H120.656ZM116.504 33.272C114.176 33.272 112.272 35.1147 112.272 37.872H112.672C112.672 35.3173 114.415 33.672 116.504 33.672V33.272ZM112.272 37.872C112.272 39.193 112.681 40.3289 113.434 41.1364C114.188 41.9454 115.271 42.408 116.584 42.408V42.008C115.369 42.008 114.396 41.5826 113.726 40.8636C113.055 40.1431 112.672 39.111 112.672 37.872H112.272ZM114 37.1802C114.089 35.7259 115.241 34.808 116.504 34.808V34.408C115.047 34.408 113.703 35.4741 113.6 37.1558L114 37.1802ZM116.504 34.808C117.153 34.808 117.747 35.004 118.186 35.3902C118.622 35.7741 118.922 36.3607 118.96 37.1772L119.36 37.1587C119.317 36.2473 118.978 35.5539 118.45 35.0898C117.925 34.628 117.231 34.408 116.504 34.408V34.808ZM119.16 36.968H113.8V37.368H119.16V36.968ZM130.194 39.264L130.388 39.3109L130.436 39.1145L130.239 39.0691L130.194 39.264ZM128.946 38.976L128.991 38.7811L128.786 38.7339L128.749 38.9407L128.946 38.976ZM128.914 36.704L128.717 36.7393L128.754 36.9461L128.959 36.8989L128.914 36.704ZM130.162 36.416L130.207 36.6109L130.404 36.5655L130.356 36.3691L130.162 36.416ZM126.322 42.408C128.211 42.408 129.916 41.2675 130.388 39.3109L130 39.2171C129.576 40.9725 128.049 42.008 126.322 42.008V42.408ZM130.239 39.0691L128.991 38.7811L128.901 39.1709L130.149 39.4589L130.239 39.0691ZM128.749 38.9407C128.544 40.0863 127.576 40.856 126.37 40.856V41.256C127.756 41.256 128.9 40.3617 129.143 39.0113L128.749 38.9407ZM126.37 40.856C124.749 40.856 123.562 39.614 123.562 37.84H123.162C123.162 39.81 124.503 41.256 126.37 41.256V40.856ZM123.562 37.84C123.562 36.1228 124.691 34.824 126.338 34.824V34.424C124.433 34.424 123.162 35.9412 123.162 37.84H123.562ZM126.338 34.824C127.544 34.824 128.512 35.5937 128.717 36.7393L129.111 36.6687C128.868 35.3183 127.724 34.424 126.338 34.424V34.824ZM128.959 36.8989L130.207 36.6109L130.117 36.2211L128.869 36.5091L128.959 36.8989ZM130.356 36.3691C129.884 34.4134 128.196 33.272 126.306 33.272V33.672C128.032 33.672 129.544 34.7066 129.968 36.4629L130.356 36.3691ZM126.306 33.272C123.741 33.272 121.85 35.272 121.85 37.84H122.25C122.25 35.48 123.975 33.672 126.306 33.672V33.272ZM121.85 37.84C121.85 40.407 123.692 42.408 126.322 42.408V42.008C123.928 42.008 122.25 40.201 122.25 37.84H121.85ZM136.92 42V42.2H137.12V42H136.92ZM136.92 40.896H137.12V40.696H136.92V40.896ZM134.472 34.752V34.552H134.272V34.752H134.472ZM137.032 34.752V34.952H137.232V34.752H137.032ZM137.032 33.68H137.232V33.48H137.032V33.68ZM134.472 33.68H134.272V33.88H134.472V33.68ZM134.472 31.264H134.672V31.064H134.472V31.264ZM133.288 31.264V31.064H133.088V31.264H133.288ZM133.288 33.68V33.88H133.488V33.68H133.288ZM131.64 33.68V33.48H131.44V33.68H131.64ZM131.64 34.752H131.44V34.952H131.64V34.752ZM133.208 34.752H133.408V34.552H133.208V34.752ZM135.736 42.2H136.92V41.8H135.736V42.2ZM137.12 42V40.896H136.72V42H137.12ZM136.92 40.696H135.72V41.096H136.92V40.696ZM135.72 40.696C135.304 40.696 135.057 40.6046 134.909 40.4527C134.761 40.2994 134.672 40.0428 134.672 39.616H134.272C134.272 40.0852 134.367 40.4686 134.623 40.7313C134.879 40.9954 135.256 41.096 135.72 41.096V40.696ZM134.672 39.616V34.752H134.272V39.616H134.672ZM134.472 34.952H137.032V34.552H134.472V34.952ZM137.232 34.752V33.68H136.832V34.752H137.232ZM137.032 33.48H134.472V33.88H137.032V33.48ZM134.672 33.68V31.264H134.272V33.68H134.672ZM134.472 31.064H133.288V31.464H134.472V31.064ZM133.088 31.264V33.68H133.488V31.264H133.088ZM133.288 33.48H131.64V33.88H133.288V33.48ZM131.44 33.68V34.752H131.84V33.68H131.44ZM131.64 34.952H133.208V34.552H131.64V34.952ZM133.008 34.752V39.632H133.408V34.752H133.008ZM133.008 39.632C133.008 40.5132 133.274 41.1675 133.771 41.5973C134.263 42.0225 134.95 42.2 135.736 42.2V41.8C135.002 41.8 134.425 41.6335 134.033 41.2947C133.646 40.9605 133.408 40.4308 133.408 39.632H133.008ZM144.834 40.784V40.584H144.707L144.653 40.6992L144.834 40.784ZM144.93 40.784H145.13V40.584H144.93V40.784ZM144.93 42H144.73V42.2H144.93V42ZM146.194 42V42.2H146.394V42H146.194ZM146.194 33.68H146.394V33.48H146.194V33.68ZM144.93 33.68V33.48H144.73V33.68H144.93ZM140.45 33.68H140.65V33.48H140.45V33.68ZM139.186 33.68V33.48H138.986V33.68H139.186ZM142.29 42.408C143.658 42.408 144.628 41.6965 145.015 40.8688L144.653 40.6992C144.337 41.3755 143.515 42.008 142.29 42.008V42.408ZM144.834 40.984H144.93V40.584H144.834V40.984ZM144.73 40.784V42H145.13V40.784H144.73ZM144.93 42.2H146.194V41.8H144.93V42.2ZM146.394 42V33.68H145.994V42H146.394ZM146.194 33.48H144.93V33.88H146.194V33.48ZM144.73 33.68V38.672H145.13V33.68H144.73ZM144.73 38.672C144.73 39.9393 143.794 40.856 142.594 40.856V41.256C144.018 41.256 145.13 40.1567 145.13 38.672H144.73ZM142.594 40.856C141.533 40.856 140.65 40.0777 140.65 38.864H140.25C140.25 40.3063 141.32 41.256 142.594 41.256V40.856ZM140.65 38.864V33.68H140.25V38.864H140.65ZM140.45 33.48H139.186V33.88H140.45V33.48ZM138.986 33.68V38.912H139.386V33.68H138.986ZM138.986 38.912C138.986 39.8736 139.292 40.7476 139.864 41.3837C140.438 42.0222 141.269 42.408 142.29 42.408V42.008C141.376 42.008 140.655 41.6658 140.161 41.1163C139.665 40.5644 139.386 39.7904 139.386 38.912H138.986ZM148.909 42H148.709V42.2H148.909V42ZM150.173 42V42.2H150.373V42H150.173ZM153.069 34.736V34.936H153.269V34.736H153.069ZM153.069 33.472H153.269V33.272H153.069V33.472ZM150.253 35.072V35.272H150.396L150.442 35.1365L150.253 35.072ZM150.157 35.072H149.957V35.272H150.157V35.072ZM150.157 33.68H150.357V33.48H150.157V33.68ZM148.909 33.68V33.48H148.709V33.68H148.909ZM148.909 42.2H150.173V41.8H148.909V42.2ZM150.373 42V37.552H149.973V42H150.373ZM150.373 37.552C150.373 36.7815 150.525 36.1229 150.84 35.6629C151.147 35.2138 151.62 34.936 152.317 34.936V34.536C151.494 34.536 150.895 34.8742 150.51 35.4371C150.132 35.9891 149.973 36.7385 149.973 37.552H150.373ZM152.317 34.936H153.069V34.536H152.317V34.936ZM153.269 34.736V33.472H152.869V34.736H153.269ZM153.069 33.272H152.525V33.672H153.069V33.272ZM152.525 33.272C151.205 33.272 150.325 34.2414 150.063 35.0075L150.442 35.1365C150.661 34.4946 151.413 33.672 152.525 33.672V33.272ZM150.253 34.872H150.157V35.272H150.253V34.872ZM150.357 35.072V33.68H149.957V35.072H150.357ZM150.157 33.48H148.909V33.88H150.157V33.48ZM148.709 33.68V42H149.109V33.68H148.709ZM162.063 39.552L162.254 39.6093L162.315 39.4056L162.108 39.3573L162.063 39.552ZM160.831 39.264L160.876 39.0693L160.682 39.0238L160.636 39.218L160.831 39.264ZM155.487 38.192V37.992H155.285L155.287 38.1937L155.487 38.192ZM162.175 38.192V38.392H162.375V38.192H162.175ZM155.519 37.168L155.319 37.1558L155.306 37.368H155.519V37.168ZM160.879 37.168V37.368H161.088L161.078 37.1587L160.879 37.168ZM158.303 42.408C160.308 42.408 161.764 41.2486 162.254 39.6093L161.871 39.4947C161.433 40.9594 160.137 42.008 158.303 42.008V42.408ZM162.108 39.3573L160.876 39.0693L160.785 39.4587L162.017 39.7467L162.108 39.3573ZM160.636 39.218C160.39 40.2603 159.415 40.888 158.319 40.888V41.288C159.558 41.288 160.727 40.5717 161.025 39.31L160.636 39.218ZM158.319 40.888C157.495 40.888 156.847 40.6409 156.402 40.1949C155.958 39.7486 155.694 39.0797 155.687 38.1903L155.287 38.1937C155.295 39.1603 155.583 39.9394 156.119 40.4771C156.655 41.0151 157.414 41.288 158.319 41.288V40.888ZM155.487 38.392H162.175V37.992H155.487V38.392ZM162.375 38.192V37.728H161.975V38.192H162.375ZM162.375 37.728C162.375 36.4427 162.004 35.3272 161.29 34.5305C160.573 33.7311 159.528 33.272 158.223 33.272V33.672C159.429 33.672 160.36 34.0929 160.992 34.7975C161.626 35.5048 161.975 36.5173 161.975 37.728H162.375ZM158.223 33.272C155.895 33.272 153.991 35.1147 153.991 37.872H154.391C154.391 35.3173 156.134 33.672 158.223 33.672V33.272ZM153.991 37.872C153.991 39.193 154.4 40.3289 155.152 41.1364C155.906 41.9454 156.99 42.408 158.303 42.408V42.008C157.088 42.008 156.115 41.5826 155.445 40.8636C154.773 40.1431 154.391 39.111 154.391 37.872H153.991ZM155.718 37.1802C155.807 35.7259 156.96 34.808 158.223 34.808V34.408C156.765 34.408 155.422 35.4741 155.319 37.1558L155.718 37.1802ZM158.223 34.808C158.871 34.808 159.465 35.004 159.905 35.3902C160.341 35.7741 160.641 36.3607 160.679 37.1772L161.078 37.1587C161.036 36.2473 160.696 35.5539 160.169 35.0898C159.644 34.628 158.95 34.408 158.223 34.408V34.808ZM160.879 36.968H155.519V37.368H160.879V36.968Z" fill="#191919"/>
</svg>
