<svg width="62" height="62" viewBox="0 0 62 62" fill="none" xmlns="http://www.w3.org/2000/svg">
<path opacity="0.2" d="M48.4375 13.5625H11.625C10.5549 13.5625 9.6875 14.4299 9.6875 15.5V31C9.6875 32.0701 10.5549 32.9375 11.625 32.9375H48.4375C49.5076 32.9375 50.375 32.0701 50.375 31V15.5C50.375 14.4299 49.5076 13.5625 48.4375 13.5625Z" fill="white"/>
<path d="M48.4375 13.5625H11.625C10.5549 13.5625 9.6875 14.4299 9.6875 15.5V31C9.6875 32.0701 10.5549 32.9375 11.625 32.9375H48.4375C49.5076 32.9375 50.375 32.0701 50.375 31V15.5C50.375 14.4299 49.5076 13.5625 48.4375 13.5625Z" stroke="white" stroke-width="3.875" stroke-linecap="round" stroke-linejoin="round"/>
<path d="M50.375 23.25H56.1875C56.7014 23.25 57.1942 23.4541 57.5575 23.8175C57.9209 24.1808 58.125 24.6736 58.125 25.1875V37.2885C58.125 37.7096 57.9878 38.1192 57.7343 38.4553C57.4808 38.7914 57.1246 39.0358 56.7198 39.1515L32.4052 46.0985C32.0004 46.2142 31.6442 46.4586 31.3907 46.7947C31.1372 47.1308 31 47.5404 31 47.9615V56.1875" stroke="white" stroke-width="3.875" stroke-linecap="round" stroke-linejoin="round"/>
<path d="M9.6875 23.25H3.875" stroke="white" stroke-width="3.875" stroke-linecap="round" stroke-linejoin="round"/>
</svg>
