<svg width="18" height="18" viewBox="0 0 18 18" fill="none" xmlns="http://www.w3.org/2000/svg">
<path d="M16.3345 8.03959L6.21167 1.85319C6.04116 1.74893 5.84595 1.69197 5.64613 1.68819C5.44631 1.68441 5.24908 1.73393 5.07475 1.83167C4.90042 1.92941 4.75528 2.07183 4.65426 2.24428C4.55325 2.41674 4.5 2.61299 4.5 2.81285V15.1867C4.50016 15.3865 4.55351 15.5827 4.65457 15.755C4.75563 15.9274 4.90075 16.0697 5.07502 16.1674C5.24929 16.2652 5.44644 16.3147 5.6462 16.311C5.84596 16.3073 6.04113 16.2505 6.21167 16.1464L16.3345 9.96C16.4989 9.85944 16.6348 9.71834 16.729 9.5502C16.8233 9.38207 16.8728 9.19255 16.8728 8.9998C16.8728 8.80704 16.8233 8.61752 16.729 8.44939C16.6348 8.28126 16.4989 8.14015 16.3345 8.03959Z" fill="#191919"/>
</svg>
