<svg width="120" height="120" viewBox="0 0 120 120" fill="none" xmlns="http://www.w3.org/2000/svg">
<path opacity="0.2" d="M65.0264 82.2488L56.0186 106.699C55.7534 107.419 55.2739 108.04 54.6447 108.478C54.0154 108.917 53.2668 109.152 52.4998 109.152C51.7327 109.152 50.9841 108.917 50.3549 108.478C49.7257 108.04 49.2462 107.419 48.981 106.699L39.9731 82.2488C39.7855 81.7397 39.4897 81.2773 39.106 80.8936C38.7223 80.5099 38.2599 80.214 37.7507 80.0264L13.3008 71.0186C12.581 70.7534 11.9599 70.2739 11.5211 69.6447C11.0824 69.0155 10.8472 68.2668 10.8472 67.4998C10.8472 66.7327 11.0824 65.9841 11.5211 65.3549C11.9599 64.7257 12.581 64.2462 13.3008 63.981L37.7507 54.9731C38.2599 54.7855 38.7223 54.4897 39.106 54.106C39.4897 53.7223 39.7855 53.2599 39.9731 52.7507L48.981 28.3008C49.2462 27.581 49.7257 26.9599 50.3549 26.5211C50.9841 26.0824 51.7327 25.8472 52.4998 25.8472C53.2668 25.8472 54.0154 26.0824 54.6447 26.5211C55.2739 26.9599 55.7534 27.581 56.0186 28.3008L65.0264 52.7507C65.214 53.2599 65.5099 53.7223 65.8936 54.106C66.2773 54.4897 66.7397 54.7855 67.2488 54.9731L91.6988 63.981C92.4186 64.2462 93.0397 64.7257 93.4784 65.3549C93.9172 65.9841 94.1524 66.7327 94.1524 67.4998C94.1524 68.2668 93.9172 69.0155 93.4784 69.6447C93.0397 70.2739 92.4186 70.7534 91.6988 71.0186L67.2488 80.0264C66.7397 80.214 66.2773 80.5099 65.8936 80.8936C65.5099 81.2773 65.214 81.7397 65.0264 82.2488V82.2488Z" fill="white"/>
<path d="M65.0264 82.2488L56.0186 106.699C55.7534 107.419 55.2739 108.04 54.6447 108.478C54.0155 108.917 53.2668 109.152 52.4998 109.152C51.7327 109.152 50.9841 108.917 50.3549 108.478C49.7257 108.04 49.2462 107.419 48.981 106.699L39.9731 82.2488C39.7855 81.7397 39.4897 81.2773 39.106 80.8936C38.7223 80.5099 38.2599 80.214 37.7507 80.0264L13.3008 71.0186C12.581 70.7534 11.9599 70.2739 11.5211 69.6447C11.0824 69.0155 10.8472 68.2668 10.8472 67.4998C10.8472 66.7327 11.0824 65.9841 11.5211 65.3549C11.9599 64.7257 12.581 64.2462 13.3008 63.981L37.7507 54.9731C38.2599 54.7855 38.7223 54.4897 39.106 54.106C39.4897 53.7223 39.7855 53.2599 39.9731 52.7507L48.981 28.3008C49.2462 27.581 49.7257 26.9599 50.3549 26.5211C50.9841 26.0824 51.7327 25.8472 52.4998 25.8472C53.2668 25.8472 54.0155 26.0824 54.6447 26.5211C55.2739 26.9599 55.7534 27.581 56.0186 28.3008L65.0264 52.7507C65.214 53.2599 65.5099 53.7223 65.8936 54.106C66.2773 54.4897 66.7397 54.7855 67.2488 54.9731L91.6988 63.981C92.4186 64.2462 93.0397 64.7257 93.4784 65.3549C93.9172 65.9841 94.1524 66.7327 94.1524 67.4998C94.1524 68.2668 93.9172 69.0155 93.4784 69.6447C93.0397 70.2739 92.4186 70.7534 91.6988 71.0186L67.2488 80.0264C66.7397 80.214 66.2773 80.5099 65.8936 80.8936C65.5099 81.2773 65.214 81.7397 65.0264 82.2488V82.2488Z" stroke="white" stroke-width="4.7" stroke-linecap="round" stroke-linejoin="round"/>
<path d="M82.5 7.5V30" stroke="white" stroke-width="4.7" stroke-linecap="round" stroke-linejoin="round"/>
<path d="M93.75 18.75H71.25" stroke="white" stroke-width="4.7" stroke-linecap="round" stroke-linejoin="round"/>
<path d="M105 33.75V48.75" stroke="white" stroke-width="4.7" stroke-linecap="round" stroke-linejoin="round"/>
<path d="M112.5 41.25H97.5" stroke="white" stroke-width="4.7" stroke-linecap="round" stroke-linejoin="round"/>
</svg>
